<svg xmlns="http://www.w3.org/2000/svg" viewBox="0 0 32 32">
  <rect width="32" height="32" rx="8" fill="#0f0e0c"/>
  <!-- Branches -->
  <path d="M16 11 C14 7, 11 4, 8 2" stroke="#b8a088" stroke-width="1.2" fill="none" opacity="0.5" stroke-linecap="round"/>
  <path d="M16 11 C15.5 7, 15.5 4, 16 1" stroke="#d4856a" stroke-width="1.2" fill="none" opacity="0.4" stroke-linecap="round"/>
  <path d="M16 11 C18 7, 21 4, 24 2" stroke="#8a9e7a" stroke-width="1.2" fill="none" opacity="0.45" stroke-linecap="round"/>
  <!-- Trunk -->
  <path d="M16 11 L16 19" stroke="#e8e0d4" stroke-width="1" opacity="0.25" stroke-linecap="round"/>
  <!-- Core nodes -->
  <circle cx="16" cy="11" r="1.5" fill="#e8e0d4" opacity="0.4"/>
  <circle cx="16" cy="19" r="1.5" fill="#e8e0d4" opacity="0.35"/>
  <!-- Roots — tríade -->
  <path d="M16 19 C14 23, 11 26, 8 30" stroke="#c4a882" stroke-width="1.5" fill="none" opacity="0.6" stroke-linecap="round"/>
  <path d="M16 19 C16 23, 16 26, 16.2 30" stroke="#d4856a" stroke-width="1.5" fill="none" opacity="0.5" stroke-linecap="round"/>
  <path d="M16 19 C18 23, 21 26, 24 30" stroke="#8a9e7a" stroke-width="1.5" fill="none" opacity="0.45" stroke-linecap="round"/>
</svg>
